<svg width="881" height="705" viewBox="0 0 881 705" fill="none" xmlns="http://www.w3.org/2000/svg">
<g filter="url(#filter0_f_102_3)">
<ellipse cx="430.948" cy="574.187" rx="339.724" ry="65.5373" fill="#1F88F8" fill-opacity="0.35"/>
</g>
<path d="M434.68 705C629.25 705 786.979 547.27 786.979 352.701C786.979 158.132 629.25 0.402039 434.68 0.402039C240.111 0.402039 82.3815 158.132 82.3815 352.701C82.3815 547.27 240.111 705 434.68 705Z" fill="url(#paint0_linear_102_3)"/>
<g filter="url(#filter1_d_102_3)">
<path d="M729.79 238.821L427.894 449.506L125.998 238.821L402.36 45.876C409.855 40.6524 418.771 37.8519 427.906 37.8519C437.042 37.8519 445.958 40.6524 453.453 45.876L508.58 84.4148L523.013 94.4379L668.348 195.922L683.658 206.672L729.79 238.821Z" fill="url(#paint1_linear_102_3)"/>
</g>
<path d="M378.806 415.252L125.998 595.016V238.821L378.806 415.252Z" fill="url(#paint2_linear_102_3)"/>
<g filter="url(#filter2_f_102_3)">
<ellipse cx="575.396" cy="231.789" rx="112.35" ry="36.1124" fill="#FF4C77" fill-opacity="0.3"/>
</g>
<path d="M477.006 415.252L729.814 595.016V238.821L477.006 415.252Z" fill="url(#paint3_linear_102_3)"/>
<path d="M125.998 595.017L402.034 398.764C409.589 393.385 418.632 390.494 427.906 390.494C437.181 390.494 446.224 393.385 453.778 398.764L729.79 595.017H125.998Z" fill="url(#paint4_linear_102_3)"/>
<path d="M551.453 137.64C554.197 137.64 556.113 135.767 556.113 133.154C556.113 130.541 554.197 128.668 551.453 128.668C548.753 128.668 546.793 130.541 546.793 133.154C546.793 135.767 548.753 137.64 551.453 137.64ZM555.198 127.056C555.198 124.008 556.679 122.832 558.944 121.656C561.993 120.088 564.257 117.519 564.257 113.86C564.257 108.416 559.075 104.584 552.15 104.584C544.833 104.584 539.607 108.895 539.084 114.949L547.49 116.473C547.795 113.686 549.45 111.639 551.801 111.639C553.674 111.639 555.111 112.946 555.111 114.731C555.111 116.517 553.5 117.519 552.106 118.433C549.058 120.437 547.751 122.701 547.751 127.056H555.198Z" fill="white"/>
<g filter="url(#filter3_d_102_3)">
<path d="M157.896 174.276C111.614 195.926 61.8796 209.254 10.9731 213.647C17.8516 229.637 66.7255 309.675 211.809 375.625C215.731 376.228 306.328 334.082 356.047 305.18C354.357 307.594 201.611 251.389 157.896 174.276Z" fill="url(#paint5_linear_102_3)"/>
</g>
<path d="M578.866 261.874C634.499 261.874 679.598 216.774 679.598 161.141C679.598 105.509 634.499 60.4094 578.866 60.4094C523.234 60.4094 478.134 105.509 478.134 161.141C478.134 216.774 523.234 261.874 578.866 261.874Z" fill="url(#paint6_linear_102_3)"/>
<path d="M578.461 130.001C581.959 130.001 584.402 127.614 584.402 124.282C584.402 120.951 581.959 118.564 578.461 118.564C575.019 118.564 572.52 120.951 572.52 124.282C572.52 127.614 575.019 130.001 578.461 130.001ZM583.236 116.509C583.236 112.623 585.123 111.124 588.011 109.625C591.897 107.626 594.784 104.35 594.784 99.6866C594.784 92.7464 588.177 87.8606 579.349 87.8606C570.022 87.8606 563.359 93.3572 562.693 101.075L573.408 103.018C573.797 99.4645 575.907 96.855 578.905 96.855C581.292 96.855 583.125 98.5206 583.125 100.797C583.125 103.073 581.07 104.35 579.294 105.516C575.407 108.07 573.742 110.957 573.742 116.509H583.236Z" fill="white"/>
<path d="M161.478 214.071C159.348 212.593 156.651 212.194 154.184 212.992L73.2087 239.19C70.3079 240.129 69.2744 243.702 71.2262 246.044V246.044C72.7979 247.93 75.3705 248.65 77.6932 247.855L160.735 219.412C163.078 218.609 163.513 215.483 161.478 214.071V214.071Z" fill="#C9DFFF"/>
<path d="M160.074 246.337C158.02 244.408 155.072 243.766 152.402 244.664L96.3439 263.531C93.872 264.363 92.9993 267.412 94.6569 269.426V269.426C96.0111 271.071 98.2427 271.705 100.26 271.019L159.067 250.995C161.053 250.319 161.603 247.772 160.074 246.337V246.337Z" fill="#C9DFFF"/>
<path d="M190.163 262.314C188.02 260.598 185.137 260.123 182.556 261.061L117.984 284.53C115.45 285.451 114.687 288.666 116.538 290.627V290.627C117.953 292.128 120.127 292.64 122.064 291.929L189.36 267.234C191.452 266.466 191.902 263.707 190.163 262.314V262.314Z" fill="#C9DFFF"/>
<path d="M212.738 310.755C210.752 308.561 207.624 307.811 204.86 308.866L167.957 322.948C165.69 323.813 164.874 326.6 166.314 328.551V328.551C167.664 330.38 170.071 331.079 172.191 330.258L211.745 314.938C213.451 314.277 213.965 312.112 212.738 310.755V310.755Z" fill="#C9DFFF"/>
<g filter="url(#filter4_d_102_3)">
<path d="M692.896 285.896C749.016 312.148 809.322 328.308 871.049 333.635C862.709 353.023 803.446 450.075 627.524 530.043C622.769 530.774 512.914 479.67 452.627 444.624C454.675 447.551 639.889 379.399 692.896 285.896Z" fill="url(#paint7_linear_102_3)"/>
</g>
<path d="M688.554 334.15C691.137 332.358 694.408 331.874 697.398 332.842L795.586 364.608C799.104 365.746 800.357 370.079 797.99 372.919V372.919C796.084 375.206 792.965 376.079 790.149 375.115L689.455 340.626C686.614 339.653 686.087 335.862 688.554 334.15V334.15Z" fill="#C9DFFF"/>
<path d="M661.063 360.299C663.553 357.96 667.128 357.181 670.365 358.271L738.34 381.147C741.337 382.156 742.395 385.854 740.385 388.296V388.296C738.743 390.29 736.037 391.06 733.591 390.227L662.284 365.947C659.876 365.128 659.209 362.039 661.063 360.299V360.299Z" fill="#C9DFFF"/>
<path d="M632.811 382.006C635.409 379.924 638.905 379.348 642.034 380.486L720.331 408.943C723.405 410.06 724.329 413.958 722.086 416.336V416.336C720.369 418.156 717.733 418.777 715.384 417.915L633.784 387.971C631.247 387.04 630.701 383.695 632.811 382.006V382.006Z" fill="#C9DFFF"/>
<path d="M569.238 425.435C571.645 422.775 575.439 421.865 578.791 423.144L623.538 440.22C626.286 441.269 627.276 444.648 625.53 447.014V447.014C623.892 449.231 620.974 450.079 618.404 449.084L570.442 430.508C568.373 429.706 567.75 427.08 569.238 425.435V425.435Z" fill="#C9DFFF"/>
<path d="M598.447 402.242C601.096 400.581 604.364 400.237 607.301 401.311L710.403 439.008C713.699 440.213 714.497 444.509 711.854 446.818V446.818C710.107 448.344 707.665 448.795 705.487 447.993L599.131 408.813C596.262 407.757 595.858 403.867 598.447 402.242V402.242Z" fill="#C9DFFF"/>
<path d="M235.07 272.903C232.886 271.532 230.191 271.249 227.769 272.134L142.74 303.224C140.022 304.217 139.364 307.76 141.543 309.664V309.664C142.984 310.923 144.998 311.295 146.794 310.633L234.506 278.322C236.872 277.45 237.206 274.242 235.07 272.903V272.903Z" fill="#C9DFFF"/>
<path d="M729.239 83.3267C729.239 92.9467 721.44 100.745 711.82 100.745C702.2 100.745 694.402 92.9467 694.402 83.3267C694.402 73.7067 702.2 65.9082 711.82 65.9082C721.44 65.9082 729.239 73.7067 729.239 83.3267Z" stroke="url(#paint8_linear_102_3)" stroke-width="2.61276"/>
<circle cx="190.198" cy="629.025" r="17.4186" stroke="url(#paint9_linear_102_3)" stroke-width="2.61276"/>
<circle cx="642.272" cy="658.45" r="17.4186" stroke="url(#paint10_linear_102_3)" stroke-width="2.61276"/>
<path d="M244.34 81.0439C244.855 78.9109 247.889 78.9109 248.404 81.0439L258.556 123.101C258.74 123.863 259.335 124.458 260.098 124.642L302.155 134.795C304.288 135.31 304.288 138.344 302.155 138.858L260.098 149.011C259.335 149.195 258.74 149.79 258.556 150.552L248.404 192.609C247.889 194.742 244.855 194.742 244.34 192.609L234.188 150.552C234.004 149.79 233.409 149.195 232.646 149.011L190.589 138.858C188.456 138.344 188.456 135.31 190.589 134.795L232.646 124.642C233.409 124.458 234.004 123.863 234.188 123.101L244.34 81.0439Z" fill="url(#paint11_linear_102_3)"/>
<path d="M780.341 546.324C780.855 544.191 783.889 544.191 784.404 546.324L794.557 588.381C794.741 589.143 795.336 589.738 796.098 589.922L838.155 600.075C840.288 600.589 840.288 603.623 838.155 604.138L796.098 614.291C795.336 614.475 794.741 615.07 794.557 615.832L784.404 657.889C783.889 660.022 780.855 660.022 780.341 657.889L770.188 615.832C770.004 615.07 769.409 614.475 768.647 614.291L726.59 604.138C724.457 603.623 724.457 600.589 726.59 600.075L768.647 589.922C769.409 589.738 770.004 589.143 770.188 588.381L780.341 546.324Z" fill="url(#paint12_linear_102_3)"/>
<path d="M98.4845 511.162C99.8085 510.95 100.865 512.251 100.387 513.504L86.01 551.15C85.5317 552.403 83.8767 552.668 83.031 551.627L57.6168 520.353C56.7712 519.312 57.3692 517.747 58.6932 517.535L98.4845 511.162Z" fill="url(#paint13_linear_102_3)"/>
<path d="M785.21 241.359C784.879 240.059 786.078 238.889 787.369 239.251L826.165 250.153C827.456 250.516 827.87 252.14 826.91 253.077L798.071 281.224C797.111 282.16 795.498 281.707 795.166 280.408L785.21 241.359Z" fill="url(#paint14_linear_102_3)"/>
<defs>
<filter id="filter0_f_102_3" x="69.4509" y="486.877" width="722.994" height="174.621" filterUnits="userSpaceOnUse" color-interpolation-filters="sRGB">
<feFlood flood-opacity="0" result="BackgroundImageFix"/>
<feBlend mode="normal" in="SourceGraphic" in2="BackgroundImageFix" result="shape"/>
<feGaussianBlur stdDeviation="10.8865" result="effect1_foregroundBlur_102_3"/>
</filter>
<filter id="filter1_d_102_3" x="122.515" y="37.8519" width="610.759" height="418.622" filterUnits="userSpaceOnUse" color-interpolation-filters="sRGB">
<feFlood flood-opacity="0" result="BackgroundImageFix"/>
<feColorMatrix in="SourceAlpha" type="matrix" values="0 0 0 0 0 0 0 0 0 0 0 0 0 0 0 0 0 0 127 0" result="hardAlpha"/>
<feOffset dy="3.48368"/>
<feGaussianBlur stdDeviation="1.74184"/>
<feComposite in2="hardAlpha" operator="out"/>
<feColorMatrix type="matrix" values="0 0 0 0 0 0 0 0 0 0 0 0 0 0 0 0 0 0 0.25 0"/>
<feBlend mode="normal" in2="BackgroundImageFix" result="effect1_dropShadow_102_3"/>
<feBlend mode="normal" in="SourceGraphic" in2="effect1_dropShadow_102_3" result="shape"/>
</filter>
<filter id="filter2_f_102_3" x="441.274" y="173.903" width="268.245" height="115.771" filterUnits="userSpaceOnUse" color-interpolation-filters="sRGB">
<feFlood flood-opacity="0" result="BackgroundImageFix"/>
<feBlend mode="normal" in="SourceGraphic" in2="BackgroundImageFix" result="shape"/>
<feGaussianBlur stdDeviation="10.8865" result="effect1_foregroundBlur_102_3"/>
</filter>
<filter id="filter3_d_102_3" x="0.522042" y="167.309" width="365.976" height="222.257" filterUnits="userSpaceOnUse" color-interpolation-filters="sRGB">
<feFlood flood-opacity="0" result="BackgroundImageFix"/>
<feColorMatrix in="SourceAlpha" type="matrix" values="0 0 0 0 0 0 0 0 0 0 0 0 0 0 0 0 0 0 127 0" result="hardAlpha"/>
<feOffset dy="3.48368"/>
<feGaussianBlur stdDeviation="5.22552"/>
<feComposite in2="hardAlpha" operator="out"/>
<feColorMatrix type="matrix" values="0 0 0 0 0.0196078 0 0 0 0 0.168627 0 0 0 0 0.396078 0 0 0 0.15 0"/>
<feBlend mode="normal" in2="BackgroundImageFix" result="effect1_dropShadow_102_3"/>
<feBlend mode="normal" in="SourceGraphic" in2="effect1_dropShadow_102_3" result="shape"/>
</filter>
<filter id="filter4_d_102_3" x="432.541" y="284.154" width="448.034" height="273.766" filterUnits="userSpaceOnUse" color-interpolation-filters="sRGB">
<feFlood flood-opacity="0" result="BackgroundImageFix"/>
<feColorMatrix in="SourceAlpha" type="matrix" values="0 0 0 0 0 0 0 0 0 0 0 0 0 0 0 0 0 0 127 0" result="hardAlpha"/>
<feOffset dx="-5.28021" dy="13.0638"/>
<feGaussianBlur stdDeviation="7.40282"/>
<feComposite in2="hardAlpha" operator="out"/>
<feColorMatrix type="matrix" values="0 0 0 0 0.021441 0 0 0 0 0.168056 0 0 0 0 0.395833 0 0 0 0.15 0"/>
<feBlend mode="normal" in2="BackgroundImageFix" result="effect1_dropShadow_102_3"/>
<feBlend mode="normal" in="SourceGraphic" in2="effect1_dropShadow_102_3" result="shape"/>
</filter>
<linearGradient id="paint0_linear_102_3" x1="431.965" y1="-114.315" x2="439.182" y2="1122.91" gradientUnits="userSpaceOnUse">
<stop stop-color="#CAE0FF" stop-opacity="0"/>
<stop offset="1" stop-color="#BCD8FF"/>
</linearGradient>
<linearGradient id="paint1_linear_102_3" x1="427.894" y1="37.8519" x2="427.894" y2="449.506" gradientUnits="userSpaceOnUse">
<stop stop-color="#EDF4FF"/>
<stop offset="1" stop-color="#ABCCFF"/>
</linearGradient>
<linearGradient id="paint2_linear_102_3" x1="252.402" y1="238.821" x2="252.402" y2="595.016" gradientUnits="userSpaceOnUse">
<stop stop-color="#ABCCFF"/>
<stop offset="1" stop-color="#70A8FF"/>
</linearGradient>
<linearGradient id="paint3_linear_102_3" x1="603.41" y1="238.821" x2="603.41" y2="595.016" gradientUnits="userSpaceOnUse">
<stop stop-color="#ABCCFF"/>
<stop offset="1" stop-color="#70A8FF"/>
</linearGradient>
<linearGradient id="paint4_linear_102_3" x1="427.894" y1="390.494" x2="427.894" y2="595.017" gradientUnits="userSpaceOnUse">
<stop stop-color="#70A8FF"/>
<stop offset="1" stop-color="#5597FD"/>
</linearGradient>
<linearGradient id="paint5_linear_102_3" x1="48.4229" y1="263.889" x2="274.46" y2="219.751" gradientUnits="userSpaceOnUse">
<stop stop-color="#C6DDFF"/>
<stop offset="1" stop-color="white"/>
</linearGradient>
<linearGradient id="paint6_linear_102_3" x1="479.097" y1="73.9641" x2="679.722" y2="262.551" gradientUnits="userSpaceOnUse">
<stop stop-color="#FF698D"/>
<stop offset="1" stop-color="#FF3868"/>
</linearGradient>
<linearGradient id="paint7_linear_102_3" x1="825.639" y1="394.556" x2="551.556" y2="341.037" gradientUnits="userSpaceOnUse">
<stop stop-color="#C6DDFF"/>
<stop offset="1" stop-color="white"/>
</linearGradient>
<linearGradient id="paint8_linear_102_3" x1="688.804" y1="71.6236" x2="747.32" y2="122.337" gradientUnits="userSpaceOnUse">
<stop stop-color="#94BFFF"/>
<stop offset="1" stop-color="#4C94FE"/>
</linearGradient>
<linearGradient id="paint9_linear_102_3" x1="167.182" y1="617.322" x2="225.697" y2="668.035" gradientUnits="userSpaceOnUse">
<stop stop-color="#94BFFF"/>
<stop offset="1" stop-color="#4C94FE"/>
</linearGradient>
<linearGradient id="paint10_linear_102_3" x1="619.256" y1="646.747" x2="677.771" y2="697.46" gradientUnits="userSpaceOnUse">
<stop stop-color="#94BFFF"/>
<stop offset="1" stop-color="#4C94FE"/>
</linearGradient>
<linearGradient id="paint11_linear_102_3" x1="246.372" y1="72.6268" x2="246.372" y2="201.026" gradientUnits="userSpaceOnUse">
<stop stop-color="#70A8FF"/>
<stop offset="1" stop-color="#5597FD"/>
</linearGradient>
<linearGradient id="paint12_linear_102_3" x1="782.372" y1="537.907" x2="782.372" y2="666.306" gradientUnits="userSpaceOnUse">
<stop stop-color="#70A8FF"/>
<stop offset="1" stop-color="#5597FD"/>
</linearGradient>
<linearGradient id="paint13_linear_102_3" x1="101.463" y1="510.685" x2="59.9441" y2="544.425" gradientUnits="userSpaceOnUse">
<stop stop-color="#70A8FF"/>
<stop offset="1" stop-color="#5597FD"/>
</linearGradient>
<linearGradient id="paint14_linear_102_3" x1="784.465" y1="238.435" x2="821.832" y2="276.722" gradientUnits="userSpaceOnUse">
<stop stop-color="#70A8FF"/>
<stop offset="1" stop-color="#5597FD"/>
</linearGradient>
</defs>
</svg>
