<svg width="861" height="609" viewBox="0 0 861 609" fill="none" xmlns="http://www.w3.org/2000/svg">
<g clip-path="url(#clip0_1_2)">
<path d="M50.8523 513.601L24.4751 491.279C27.4916 473.384 34.8309 456.495 45.8556 442.08C46.7421 474.329 79.7979 495.927 91.1729 526.117C94.6485 535.56 95.9546 545.664 94.9944 555.68C94.0342 565.697 90.8324 575.368 85.6261 583.979L82.9724 608.343C68.5673 600.836 55.9608 590.296 46.0215 577.448C36.0822 564.6 29.0463 549.75 25.3987 533.921C23.4404 525.021 22.6107 515.91 22.9291 506.802C36.4345 510.912 50.8523 513.601 50.8523 513.601Z" fill="#3F3D56"/>
<path d="M790.244 556.297L808.664 527.061C826.805 527.549 844.553 532.458 860.367 541.362C828.557 546.743 811.787 582.491 783.482 597.97C774.617 602.731 764.794 605.435 754.742 605.883C744.689 606.331 734.665 604.511 725.412 600.558L700.916 601.333C706.338 586.02 715.014 572.066 726.348 560.43C737.682 548.793 751.404 539.753 766.569 533.931C775.108 530.749 784.015 528.655 793.077 527.698C790.894 541.645 790.244 556.297 790.244 556.297Z" fill="#3F3D56"/>
<path d="M207.198 460.992L105.065 455L119.065 356L209.065 453L207.198 460.992Z" fill="#3F3D56"/>
<path d="M194.198 561.992L90.198 554.992L104.065 465L194.667 555.008L194.198 561.992Z" fill="#3F3D56"/>
<path d="M775.179 144.373V52.9267C775.179 45.9762 773.81 39.0939 771.151 32.6725C768.491 26.2511 764.592 20.4165 759.677 15.5018C754.763 10.5871 748.928 6.68859 742.507 4.02878C736.086 1.36896 729.203 -3.05176e-05 722.253 -3.05176e-05H528.511C521.56 -3.18308e-05 514.678 1.36896 508.257 4.02878C501.835 6.68859 496.001 10.5871 491.086 15.5018C486.171 20.4165 482.273 26.2511 479.613 32.6725C476.953 39.0939 475.584 45.9763 475.584 52.9267V554.609C475.584 568.646 481.16 582.109 491.086 592.034C501.012 601.96 514.474 607.536 528.511 607.536H722.253C736.29 607.536 749.752 601.96 759.677 592.034C769.603 582.109 775.179 568.646 775.179 554.609V209.466C776.065 209.466 776.914 209.115 777.54 208.489C778.166 207.863 778.517 207.014 778.517 206.128V147.711C778.517 146.826 778.166 145.977 777.54 145.351C776.914 144.725 776.065 144.373 775.179 144.373V144.373Z" fill="#3F3D56"/>
<path d="M763.915 53.29V554.248C763.917 564.654 759.812 574.64 752.493 582.036C745.174 589.433 735.232 593.642 724.827 593.751C724.683 593.766 724.539 593.772 724.394 593.769H529.71C519.228 593.768 509.177 589.604 501.765 582.193C494.354 574.781 490.19 564.729 490.189 554.248V53.29C490.19 42.8087 494.354 32.757 501.765 25.3456C509.177 17.9342 519.228 13.7701 529.71 13.7691H553.336C552.174 16.6214 551.732 19.7153 552.047 22.7788C552.362 25.8423 553.425 28.7813 555.143 31.3374C556.86 33.8935 559.18 35.9883 561.897 37.4374C564.615 38.8865 567.647 39.6456 570.726 39.6478H681.72C684.797 39.6393 687.825 38.876 690.538 37.4247C693.251 35.9734 695.567 33.8786 697.282 31.3239C698.996 28.7693 700.058 25.8328 700.374 22.7722C700.69 19.7115 700.25 16.6201 699.092 13.7691H724.395C734.876 13.7701 744.928 17.9342 752.339 25.3456C759.75 32.7569 763.914 42.8087 763.915 53.29Z" fill="white"/>
<path d="M721.053 581.54C721.053 586.73 720.889 591.877 720.563 596.98C720.42 596.997 720.276 597.004 720.133 597H525.453C516.644 597 508.088 594.057 501.143 588.641C494.197 583.224 489.259 575.643 487.113 567.1C486.736 565.609 486.452 564.096 486.263 562.57C486.041 560.882 485.931 559.182 485.933 557.48V334.23C500.912 334.971 515.794 337.073 530.393 340.51C531.823 340.84 533.243 341.19 534.653 341.55C534.743 341.57 534.833 341.6 534.923 341.62C536.353 341.98 537.773 342.36 539.183 342.75C569.279 351.016 597.53 364.926 622.433 383.74C623.863 384.81 625.283 385.91 626.693 387.02L626.963 387.23C629.323 389.09 631.646 390.997 633.933 392.95C634.443 393.38 634.953 393.82 635.453 394.27C636.683 395.33 637.913 396.41 639.113 397.5C665.668 421.403 686.749 450.759 700.913 483.56C701.383 484.63 701.833 485.71 702.283 486.79C702.463 487.23 702.643 487.67 702.823 488.11C702.993 488.51 703.152 488.91 703.313 489.31C715.069 518.636 721.091 549.945 721.053 581.54V581.54Z" fill="#3F3D56"/>
<path d="M476.655 195.532C475.46 195.531 474.315 195.055 473.47 194.211C472.626 193.366 472.151 192.221 472.149 191.027V160.39C472.149 159.195 472.624 158.049 473.469 157.204C474.314 156.36 475.46 155.885 476.655 155.885C477.85 155.885 478.996 156.36 479.84 157.204C480.685 158.049 481.16 159.195 481.16 160.39V191.027C481.159 192.221 480.684 193.366 479.839 194.211C478.994 195.055 477.849 195.531 476.655 195.532V195.532Z" fill="#3F3D56"/>
<path d="M475.754 136.061C474.559 136.06 473.414 135.585 472.569 134.74C471.725 133.896 471.25 132.75 471.248 131.556V100.92C471.248 99.7248 471.723 98.5789 472.568 97.7339C473.413 96.889 474.559 96.4144 475.754 96.4144C476.948 96.4144 478.094 96.889 478.939 97.7339C479.784 98.5789 480.259 99.7248 480.259 100.92V131.556C480.258 132.75 479.782 133.896 478.938 134.74C478.093 135.585 476.948 136.06 475.754 136.061V136.061Z" fill="#3F3D56"/>
<path d="M595.596 18.9224C595.597 17.728 596.072 16.5828 596.917 15.7382C597.761 14.8936 598.907 14.4185 600.101 14.4171H630.737C631.33 14.4162 631.916 14.5321 632.464 14.7581C633.011 14.9841 633.508 15.3159 633.928 15.7343C634.347 16.1528 634.679 16.6497 634.906 17.1968C635.133 17.7438 635.25 18.3302 635.25 18.9224C635.25 19.5147 635.133 20.1011 634.906 20.6481C634.679 21.1952 634.347 21.6921 633.928 22.1106C633.508 22.529 633.011 22.8607 632.464 23.0868C631.916 23.3128 631.33 23.4287 630.737 23.4278H600.101C598.907 23.4264 597.761 22.9513 596.917 22.1066C596.072 21.262 595.597 20.1169 595.596 18.9224V18.9224Z" fill="white"/>
<path d="M476.655 247.794C475.46 247.793 474.315 247.317 473.47 246.473C472.626 245.628 472.151 244.483 472.149 243.289V212.652C472.149 211.457 472.624 210.311 473.469 209.466C474.314 208.622 475.46 208.147 476.655 208.147C477.85 208.147 478.996 208.622 479.84 209.466C480.685 210.311 481.16 211.457 481.16 212.652V243.289C481.159 244.483 480.683 245.628 479.839 246.473C478.994 247.317 477.849 247.793 476.655 247.794V247.794Z" fill="#3F3D56"/>
<path d="M647.858 23.4278C650.346 23.4278 652.363 21.4107 652.363 18.9225C652.363 16.4342 650.346 14.4171 647.858 14.4171C645.369 14.4171 643.352 16.4342 643.352 18.9225C643.352 21.4107 645.369 23.4278 647.858 23.4278Z" fill="white"/>
<path opacity="0.2" d="M631.223 559.34C631.221 549.986 633.063 540.723 636.642 532.08C640.221 523.437 645.468 515.585 652.083 508.97C658.697 502.355 666.55 497.109 675.193 493.53C683.835 489.95 693.098 488.109 702.453 488.11H702.823C702.643 487.67 702.463 487.23 702.283 486.79C701.833 485.71 701.383 484.63 700.913 483.56H631.223V394.27H635.453C634.953 393.82 634.443 393.38 633.933 392.95C631.643 391 629.319 389.093 626.963 387.23L626.693 387.02V389.72H539.183V342.75C537.773 342.36 536.353 341.98 534.923 341.62C534.833 341.6 534.743 341.57 534.653 341.55V389.72H490.193V394.27H534.653V483.56H490.193V488.11H534.653V559.34H490.523C490.712 560.866 490.996 562.379 491.373 563.87H534.653V593.77H539.183V563.87H626.693V593.77H631.223V563.87H707.573V559.34H631.223ZM626.693 559.34H539.183V488.11H626.693V559.34ZM626.693 483.56H539.183V481.78C539.183 458.571 548.403 436.313 564.814 419.901C581.225 403.49 603.483 394.27 626.693 394.27V483.56Z" fill="black"/>
<path d="M238.653 232.79L190.083 606.41L189.773 608.79H187.753L188.063 606.41L236.673 232.53L238.653 232.79Z" fill="#E5E5E5"/>
<path d="M137.533 233.26L83.973 606.45L83.633 608.83H81.613L81.953 606.45L135.553 232.98L137.533 233.26Z" fill="#C8C5C5"/>
<path d="M314.173 608.74L312.093 608.75L311.453 606.37L207.843 221.52L209.773 221L313.523 606.37L314.173 608.74Z" fill="#3F3D56"/>
<path d="M309.785 220.985L307.861 221.531L417.047 606.682L418.971 606.137L309.785 220.985Z" fill="#3F3D56"/>
<path d="M398.129 536.019L299.122 556.502L299.528 558.461L398.535 537.978L398.129 536.019Z" fill="#3F3D56"/>
<path d="M380.964 475.939L281.957 496.422L282.362 498.381L381.369 477.898L380.964 475.939Z" fill="#3F3D56"/>
<path d="M363.811 415.857L265.494 434.885L265.874 436.848L364.191 417.82L363.811 415.857Z" fill="#3F3D56"/>
<path d="M346.643 355.789L250.469 374.795L250.856 376.757L347.031 357.751L346.643 355.789Z" fill="#3F3D56"/>
<path d="M135.842 233.191C134.338 223.366 136.799 213.346 142.683 205.335C148.567 197.325 157.392 191.979 167.217 190.475C177.041 188.971 187.061 191.432 195.072 197.316C203.083 203.2 208.428 212.025 209.932 221.85L207.956 222.152C207.253 217.545 205.649 213.122 203.236 209.135C200.823 205.148 197.648 201.675 193.893 198.915C190.138 196.155 185.875 194.163 181.35 193.05C176.824 191.938 172.123 191.729 167.517 192.434C162.91 193.139 158.487 194.745 154.501 197.16C150.515 199.575 147.044 202.752 144.286 206.508C141.529 210.265 139.538 214.528 138.428 219.055C137.318 223.581 137.111 228.282 137.819 232.888L135.842 233.191Z" fill="#3F3D56"/>
<path d="M236.003 233.638C235.193 228.783 235.348 223.815 236.458 219.02C237.568 214.224 239.612 209.694 242.473 205.688C245.334 201.683 248.956 198.28 253.132 195.674C257.309 193.069 261.958 191.312 266.813 190.503C271.669 189.694 276.636 189.85 281.432 190.962C286.227 192.074 290.756 194.119 294.761 196.981C298.766 199.844 302.167 203.467 304.772 207.644C307.376 211.821 309.131 216.471 309.938 221.327L307.966 221.655C306.416 212.377 301.246 204.095 293.591 198.629C285.936 193.163 276.424 190.96 267.146 192.505C257.868 194.05 249.583 199.216 244.113 206.868C238.643 214.52 236.436 224.031 237.976 233.31L236.003 233.638Z" fill="#3F3D56"/>
<path d="M339.339 315.25L320.12 362.005L382.739 361.551L376.371 315.146L339.339 315.25Z" fill="#FFB6B6"/>
<path d="M354.63 529.884L363.918 531.239L373.562 496.059L359.854 494.06L354.63 529.884Z" fill="#FFB6B6"/>
<path d="M352.995 524.967L367.805 526.232L366.887 532.523L379.44 544.199C380.06 544.776 380.479 545.536 380.637 546.368C380.795 547.2 380.682 548.06 380.316 548.824C379.95 549.587 379.35 550.214 378.602 550.612C377.855 551.01 377 551.159 376.162 551.036L358.682 548.486L356.577 541.825L354.493 547.875L347.902 546.914L352.995 524.967Z" fill="#2F2E41"/>
<path d="M247.292 503.901L254.702 509.663L280.452 483.824L269.516 475.321L247.292 503.901Z" fill="#FFB6B6"/>
<path d="M248.297 498.817L260.554 507.227L256.651 512.245L261.806 528.595C262.061 529.403 262.051 530.271 261.778 531.072C261.504 531.873 260.982 532.566 260.287 533.05C259.591 533.533 258.76 533.782 257.913 533.759C257.067 533.737 256.25 533.444 255.582 532.924L241.637 522.08L243.093 515.247L238.295 519.481L233.037 515.393L248.297 498.817Z" fill="#2F2E41"/>
<path d="M323.656 350.911L317.489 359.08L301.074 430.499L263.762 480.891L276.305 492.935L323.894 446.766L347.249 397.436L359.065 443L356.065 504L376.065 503C381.485 432.209 389.965 359.371 379.977 338.916C373.394 344.658 365.709 348.997 357.391 351.668C349.074 354.338 340.299 355.284 331.603 354.447L323.656 350.911Z" fill="#2F2E41"/>
<path d="M356.667 239.64L372.445 256.894C375.908 260.68 378.103 265.453 378.725 270.547V270.547C379.007 272.859 378.96 275.201 378.585 277.5L375.183 302.42L381.183 340.42C381.183 340.42 372.632 345.636 356.183 356.42C349.47 360.821 318.145 360.75 318.183 359.42C318.361 353.258 323.873 336.651 325.183 316.42C326.801 291.449 324.68 261.645 330.183 247.42C336.902 230.054 356.667 239.64 356.667 239.64Z" fill="#FB750D"/>
<path d="M302.521 350.201C303.21 349.2 303.67 348.06 303.87 346.861C304.07 345.662 304.005 344.434 303.68 343.264C303.354 342.093 302.775 341.008 301.985 340.085C301.194 339.162 300.211 338.423 299.104 337.921L299.721 318.935L288.275 315.747L287.78 342.571C287.06 344.486 287.068 346.599 287.802 348.509C288.535 350.419 289.944 351.993 291.761 352.934C293.578 353.874 295.677 354.116 297.66 353.612C299.644 353.108 301.373 351.895 302.521 350.201V350.201Z" fill="#FFB6B6"/>
<path d="M287.254 273.559C287.591 272.674 288.109 271.869 288.774 271.195C289.439 270.521 290.237 269.992 291.117 269.643C297.209 267.083 323.547 245.56 324.518 245.965L332.879 241.838C333.188 241.841 341.425 242.036 345.465 246.618C346.305 247.585 346.926 248.723 347.285 249.953C347.643 251.183 347.732 252.476 347.543 253.743C346.36 264.655 309.022 289.165 305.065 289L300.873 319.982L302.504 331.818L287.235 332.252L282.53 314.824C281.854 313.553 281.001 289.48 287.254 273.559Z" fill="#FB750D"/>
<path d="M348.47 257.01C349.706 248.539 344.949 240.832 337.844 239.795C330.74 238.759 323.978 244.786 322.743 253.257C321.507 261.727 326.265 269.434 333.369 270.471C340.474 271.507 347.235 265.48 348.47 257.01Z" fill="#FB750D"/>
<path d="M233.692 312.393L233.305 310.431L326.183 289.42V291.42L233.692 312.393Z" fill="#3F3D56"/>
<path d="M644.863 171.07H609.241C601.557 171.07 595.328 177.299 595.328 184.983V184.983C595.328 192.667 601.557 198.896 609.241 198.896H644.863C652.547 198.896 658.776 192.667 658.776 184.983C658.776 177.299 652.547 171.07 644.863 171.07Z" fill="#E6E6E6"/>
<path d="M710.95 226.722H543.154C535.471 226.722 529.241 232.951 529.241 240.635V240.635C529.241 248.319 535.471 254.548 543.154 254.548H710.95C718.634 254.548 724.863 248.319 724.863 240.635C724.863 232.951 718.634 226.722 710.95 226.722Z" fill="#E6E6E6"/>
<path d="M638.95 268.374H471.154C463.471 268.374 457.241 274.603 457.241 282.287V282.287C457.241 289.971 463.471 296.2 471.154 296.2H638.95C646.634 296.2 652.863 289.971 652.863 282.287C652.863 274.603 646.634 268.374 638.95 268.374Z" fill="#FB750D"/>
<path d="M860.13 607.34C860.131 607.496 860.1 607.651 860.04 607.796C859.981 607.941 859.893 608.072 859.783 608.183C859.672 608.293 859.541 608.381 859.396 608.44C859.251 608.5 859.096 608.53 858.94 608.53L266.25 608.74L264.17 608.75L141.85 608.79H139.83L35.7101 608.83H33.6901L1.19006 608.84C0.874456 608.84 0.571771 608.715 0.348602 608.491C0.125434 608.268 6.10352e-05 607.966 6.10352e-05 607.65C6.10352e-05 607.334 0.125434 607.032 0.348602 606.809C0.571771 606.585 0.874456 606.46 1.19006 606.46L34.0301 606.45H36.0501L140.14 606.41H142.16L263.53 606.37H265.6L369.02 606.33H370.38L858.94 606.15C859.097 606.15 859.251 606.18 859.396 606.24C859.541 606.299 859.672 606.387 859.783 606.498C859.893 606.608 859.981 606.739 860.04 606.884C860.1 607.029 860.131 607.184 860.13 607.34V607.34Z" fill="#CACACA"/>
<path d="M373.363 222.411C370.378 226.377 366.131 229.207 361.322 230.437C356.513 231.666 351.429 231.221 346.907 229.176C342.385 227.13 338.694 223.604 336.443 219.181C334.191 214.757 333.514 209.699 334.521 204.838C335.529 199.978 338.162 195.606 341.986 192.442C345.811 189.278 350.599 187.511 355.562 187.431C360.525 187.352 365.367 188.965 369.29 192.005C373.214 195.045 375.985 199.331 377.148 204.156C377.211 204.418 377.264 204.678 377.315 204.949C377.929 207.973 377.895 211.094 377.213 214.104C376.532 217.114 375.22 219.946 373.363 222.411V222.411Z" fill="#FFB6B6"/>
<path d="M379.047 205.201C378.496 202.463 378.704 203.878 378.143 201.148C378.259 202.47 377.97 203.795 377.315 204.949L351.578 201.194L353.76 186.233C361.736 184.344 369.479 182.876 373.125 189.057C377.093 189.636 380.669 191.768 383.065 194.983C385.462 198.198 386.483 202.234 385.904 206.202L379.047 205.201Z" fill="#2F2E41"/>
<path d="M363.856 245.46C363.877 245.18 363.889 244.889 363.89 244.606C363.841 242.523 363.571 240.451 363.084 238.425C362.646 236.229 362.2 234.021 361.753 231.824C362.168 235.755 361.289 239.714 359.249 243.1C355.398 239.083 357.944 233.267 352.264 232.438C338.609 230.446 327.497 215.801 329.49 202.136C331.482 188.48 338.83 179.123 352.486 181.115C366.151 183.108 376.321 190.979 374.597 204.673C357.197 206.178 367.235 244.538 363.856 245.46Z" fill="#2F2E41"/>
<path d="M333.812 193.58C338.849 193.58 342.933 189.496 342.933 184.459C342.933 179.422 338.849 175.338 333.812 175.338C328.774 175.338 324.691 179.422 324.691 184.459C324.691 189.496 328.774 193.58 333.812 193.58Z" fill="#2F2E41"/>
<path d="M344.631 176.928C343.78 175.088 342.489 173.485 340.871 172.263C339.253 171.041 337.359 170.236 335.356 169.921C336.767 170.559 337.999 171.534 338.944 172.761C339.89 173.987 340.519 175.427 340.776 176.954C341.034 178.481 340.912 180.048 340.421 181.517C339.93 182.986 339.085 184.311 337.962 185.376L339.806 183.791C340.309 184.22 340.935 184.476 341.594 184.523C342.252 184.57 342.909 184.405 343.467 184.053C344.015 183.684 344.472 183.196 344.803 182.626C345.135 182.055 345.334 181.417 345.383 180.758C345.471 179.438 345.212 178.117 344.631 176.928V176.928Z" fill="#2F2E41"/>
<path d="M460.735 273.398C459.651 272.848 458.46 272.544 457.245 272.505C456.03 272.466 454.822 272.694 453.705 273.173C452.588 273.651 451.589 274.369 450.78 275.275C449.97 276.182 449.369 277.254 449.019 278.418L430.12 280.333L428.482 292.101L455.133 289.023C457.127 289.481 459.22 289.193 461.016 288.211C462.811 287.23 464.184 285.624 464.874 283.698C465.565 281.772 465.525 279.66 464.762 277.761C463.999 275.863 462.566 274.31 460.735 273.398Z" fill="#FFB6B6"/>
<path d="M386.805 298.726C385.883 298.509 385.017 298.103 384.26 297.534C383.504 296.964 382.873 296.244 382.41 295.418C379.063 289.721 354.227 266.48 354.498 265.465L349.296 257.726C349.258 257.42 348.355 249.231 352.359 244.617C353.206 243.655 354.251 242.889 355.422 242.369C356.593 241.85 357.863 241.591 359.144 241.609C370.117 241.33 397.702 276.056 398.065 280L431.004 279.052L442.517 275.86L444.979 290.936L428.332 297.918C427.162 298.757 403.417 302.805 386.805 298.726Z" fill="#FB750D"/>
</g>
<defs>
<clipPath id="clip0_1_2">
<rect width="860.367" height="608.84" fill="white"/>
</clipPath>
</defs>
</svg>
