<svg width="45" height="46" viewBox="0 0 45 46" fill="none" xmlns="http://www.w3.org/2000/svg">
<g clip-path="url(#clip0_718_281)">
<path d="M32.4514 33.0418H17.1C16.6738 33.0418 16.265 32.8725 15.9636 32.5711C15.6622 32.2697 15.4929 31.8609 15.4929 31.4347C15.4929 31.0084 15.6622 30.5997 15.9636 30.2983C16.265 29.9969 16.6738 29.8275 17.1 29.8275H32.4514C32.8777 29.8275 33.2865 29.9969 33.5879 30.2983C33.8893 30.5997 34.0586 31.0084 34.0586 31.4347C34.0586 31.8609 33.8893 32.2697 33.5879 32.5711C33.2865 32.8725 32.8777 33.0418 32.4514 33.0418ZM41.2972 33.0418H40.9114C40.4852 33.0418 40.0764 32.8725 39.775 32.5711C39.4736 32.2697 39.3043 31.8609 39.3043 31.4347C39.3043 31.0084 39.4736 30.5997 39.775 30.2983C40.0764 29.9969 40.4852 29.8275 40.9114 29.8275H41.2972C41.4029 29.8293 41.508 29.8099 41.6062 29.7706C41.7044 29.7313 41.7938 29.6729 41.8691 29.5987C41.9445 29.5245 42.0044 29.436 42.0453 29.3385C42.0861 29.2409 42.1072 29.1362 42.1072 29.0304V23.5147C42.1066 23.3338 42.0456 23.1583 41.9337 23.0162C41.8219 22.8741 41.6657 22.7735 41.49 22.7304H32.0143C30.9492 22.7304 29.9276 22.3082 29.1732 21.5563C28.4189 20.8043 27.9934 19.7841 27.99 18.719V10.1047C27.9918 9.99953 27.9723 9.89509 27.9329 9.79759C27.8934 9.70009 27.8348 9.61152 27.7604 9.53715C27.686 9.46278 27.5975 9.40413 27.5 9.36468C27.4025 9.32524 27.298 9.30581 27.1929 9.30755H8.2543C7.82806 9.30755 7.41927 9.13822 7.11788 8.83683C6.81648 8.53543 6.64716 8.12665 6.64716 7.7004C6.64716 7.27416 6.81648 6.86538 7.11788 6.56398C7.41927 6.26259 7.82806 6.09326 8.2543 6.09326H27.1929C27.7197 6.09326 28.2413 6.19702 28.728 6.39861C29.2147 6.60021 29.6569 6.89569 30.0294 7.26818C30.4019 7.64068 30.6974 8.08289 30.8989 8.56958C31.1005 9.05627 31.2043 9.5779 31.2043 10.1047V18.6933C31.2043 18.799 31.2253 18.9038 31.2662 19.0013C31.307 19.0989 31.3669 19.1873 31.4423 19.2615C31.5177 19.3357 31.6071 19.3942 31.7053 19.4335C31.8035 19.4728 31.9085 19.4921 32.0143 19.4904H41.2972C41.5907 19.4942 41.8833 19.5243 42.1714 19.5804L42.4543 19.6704C43.2868 19.9138 44.0172 20.4221 44.5346 21.1182C45.0521 21.8143 45.3283 22.6602 45.3214 23.5275V29.0433C45.3146 30.1061 44.8877 31.1231 44.1337 31.8723C43.3797 32.6214 42.36 33.0419 41.2972 33.0418Z" fill="black"/>
<path d="M41.85 22.7819C41.5196 22.7819 41.1974 22.6792 40.9279 22.488C40.6584 22.2968 40.455 22.0266 40.3457 21.7148L37.7743 14.5662C37.7051 14.4698 37.6146 14.3906 37.5097 14.3348C37.4049 14.2791 37.2887 14.2483 37.17 14.2448H29.5714C29.1452 14.2448 28.7364 14.0755 28.435 13.7741C28.1336 13.4727 27.9643 13.0639 27.9643 12.6377C27.9643 12.2114 28.1336 11.8026 28.435 11.5012C28.7364 11.1998 29.1452 11.0305 29.5714 11.0305H37.17C37.8825 11.0333 38.581 11.2282 39.192 11.5948C39.803 11.9614 40.3037 12.486 40.6414 13.1134C40.681 13.188 40.7154 13.2654 40.7443 13.3448L43.3157 20.6348C43.4563 21.0373 43.4325 21.479 43.2496 21.8641C43.0667 22.2491 42.7394 22.5466 42.3386 22.6919C42.1801 22.7423 42.016 22.7726 41.85 22.7819ZM36.6814 39.9077C35.5244 39.9077 34.3934 39.5646 33.4313 38.9218C32.4693 38.279 31.7195 37.3653 31.2767 36.2964C30.834 35.2274 30.7181 34.0512 30.9438 32.9164C31.1696 31.7816 31.7267 30.7392 32.5449 29.9211C33.363 29.1029 34.4054 28.5458 35.5401 28.3201C36.6749 28.0943 37.8512 28.2102 38.9201 28.653C39.9891 29.0957 40.9027 29.8455 41.5455 30.8076C42.1883 31.7696 42.5314 32.9006 42.5314 34.0577C42.5314 35.6092 41.9151 37.0971 40.818 38.1942C39.7209 39.2913 38.2329 39.9077 36.6814 39.9077ZM36.6814 31.4219C36.1576 31.4092 35.6418 31.5528 35.2 31.8346C34.7582 32.1163 34.4104 32.5233 34.201 33.0037C33.9916 33.484 33.9302 34.0159 34.0245 34.5313C34.1188 35.0468 34.3646 35.5224 34.7305 35.8975C35.0965 36.2725 35.5659 36.53 36.0788 36.637C36.5918 36.7441 37.125 36.6957 37.6104 36.4983C38.0957 36.3008 38.5112 35.9632 38.8038 35.5284C39.0964 35.0937 39.2527 34.5817 39.2529 34.0577C39.2531 33.3696 38.9842 32.7088 38.5037 32.2163C38.0233 31.7238 37.3693 31.4387 36.6814 31.4219ZM12.8571 39.9077C11.7001 39.9077 10.5691 39.5646 9.60706 38.9218C8.64503 38.279 7.89522 37.3653 7.45245 36.2964C7.00968 35.2274 6.89383 34.0512 7.11955 32.9164C7.34527 31.7816 7.90243 30.7392 8.72057 29.9211C9.53871 29.1029 10.5811 28.5458 11.7159 28.3201C12.8507 28.0943 14.0269 28.2102 15.0958 28.653C16.1648 29.0957 17.0784 29.8455 17.7212 30.8076C18.364 31.7696 18.7071 32.9006 18.7071 34.0577C18.7071 35.6092 18.0908 37.0971 16.9937 38.1942C15.8966 39.2913 14.4087 39.9077 12.8571 39.9077ZM12.8571 31.4219C12.3358 31.4219 11.8263 31.5765 11.3928 31.8661C10.9594 32.1558 10.6216 32.5674 10.4221 33.049C10.2226 33.5306 10.1704 34.0606 10.2721 34.5719C10.3738 35.0831 10.6248 35.5528 10.9934 35.9214C11.362 36.29 11.8317 36.541 12.3429 36.6427C12.8542 36.7444 13.3842 36.6922 13.8658 36.4927C14.3474 36.2933 14.759 35.9554 15.0487 35.522C15.3383 35.0885 15.4929 34.579 15.4929 34.0577C15.4929 33.3586 15.2152 32.6882 14.7209 32.1939C14.2266 31.6996 13.5562 31.4219 12.8571 31.4219Z" fill="black"/>
<path d="M29.5714 33.0419C29.3599 33.0436 29.1502 33.0032 28.9544 32.923C28.7586 32.8428 28.5808 32.7245 28.4312 32.5749C28.2816 32.4254 28.1633 32.2475 28.0831 32.0518C28.003 31.856 27.9626 31.6462 27.9643 31.4347V17.3819C27.9643 16.9556 28.1336 16.5468 28.435 16.2454C28.7364 15.944 29.1452 15.7747 29.5714 15.7747C29.9977 15.7747 30.4065 15.944 30.7079 16.2454C31.0093 16.5468 31.1786 16.9556 31.1786 17.3819V31.4347C31.1803 31.6462 31.1399 31.856 31.0597 32.0518C30.9796 32.2475 30.8613 32.4254 30.7117 32.5749C30.5621 32.7245 30.3842 32.8428 30.1885 32.923C29.9927 33.0032 29.783 33.0436 29.5714 33.0419ZM13.1014 17.4333H2.57144C2.1452 17.4333 1.73641 17.264 1.43502 16.9626C1.13362 16.6612 0.964294 16.2524 0.964294 15.8261C0.964294 15.3999 1.13362 14.9911 1.43502 14.6897C1.73641 14.3883 2.1452 14.219 2.57144 14.219H13.1014C13.5277 14.219 13.9365 14.3883 14.2379 14.6897C14.5393 14.9911 14.7086 15.3999 14.7086 15.8261C14.7086 16.2524 14.5393 16.6612 14.2379 16.9626C13.9365 17.264 13.5277 17.4333 13.1014 17.4333ZM15.0814 24.6076H9.57858C9.15234 24.6076 8.74356 24.4382 8.44216 24.1368C8.14076 23.8354 7.97144 23.4267 7.97144 23.0004C7.97144 22.5742 8.14076 22.1654 8.44216 21.864C8.74356 21.5626 9.15234 21.3933 9.57858 21.3933H15.0814C15.5077 21.3933 15.9165 21.5626 16.2179 21.864C16.5193 22.1654 16.6886 22.5742 16.6886 23.0004C16.6886 23.4267 16.5193 23.8354 16.2179 24.1368C15.9165 24.4382 15.5077 24.6076 15.0814 24.6076Z" fill="black"/>
</g>
<defs>
<clipPath id="clip0_718_281">
<rect width="45" height="45" fill="white" transform="translate(0 0.500488)"/>
</clipPath>
</defs>
</svg>
