<svg width="35" height="36" viewBox="0 0 35 36" fill="none" xmlns="http://www.w3.org/2000/svg">
<path d="M32.0833 25.2921H2.91665C2.52987 25.2921 2.15894 25.4457 1.88545 25.7192C1.61196 25.9927 1.45831 26.3636 1.45831 26.7504C1.45831 27.1372 1.61196 27.5081 1.88545 27.7816C2.15894 28.0551 2.52987 28.2087 2.91665 28.2087H32.0833C32.4701 28.2087 32.841 28.0551 33.1145 27.7816C33.388 27.5081 33.5416 27.1372 33.5416 26.7504C33.5416 26.3636 33.388 25.9927 33.1145 25.7192C32.841 25.4457 32.4701 25.2921 32.0833 25.2921ZM32.0833 31.1254H2.91665C2.52987 31.1254 2.15894 31.279 1.88545 31.5525C1.61196 31.826 1.45831 32.197 1.45831 32.5837C1.45831 32.9705 1.61196 33.3414 1.88545 33.6149C2.15894 33.8884 2.52987 34.0421 2.91665 34.0421H32.0833C32.4701 34.0421 32.841 33.8884 33.1145 33.6149C33.388 33.3414 33.5416 32.9705 33.5416 32.5837C33.5416 32.197 33.388 31.826 33.1145 31.5525C32.841 31.279 32.4701 31.1254 32.0833 31.1254ZM8.74998 10.7087C8.46155 10.7087 8.17959 10.7943 7.93977 10.9545C7.69995 11.1148 7.51303 11.3425 7.40265 11.609C7.29228 11.8755 7.2634 12.1687 7.31967 12.4516C7.37594 12.7345 7.51483 12.9943 7.71878 13.1983C7.92273 13.4022 8.18258 13.5411 8.46547 13.5974C8.74836 13.6537 9.04158 13.6248 9.30806 13.5144C9.57453 13.404 9.8023 13.2171 9.96254 12.9773C10.1228 12.7375 10.2083 12.4555 10.2083 12.1671C10.2083 11.7803 10.0547 11.4094 9.78118 11.1359C9.50769 10.8624 9.13675 10.7087 8.74998 10.7087ZM29.1666 1.95874H5.83331C4.67299 1.95874 3.56019 2.41968 2.73972 3.24015C1.91925 4.06062 1.45831 5.17342 1.45831 6.33374V18.0004C1.45831 19.1607 1.91925 20.2735 2.73972 21.094C3.56019 21.9145 4.67299 22.3754 5.83331 22.3754H29.1666C30.327 22.3754 31.4398 21.9145 32.2602 21.094C33.0807 20.2735 33.5416 19.1607 33.5416 18.0004V6.33374C33.5416 5.17342 33.0807 4.06062 32.2602 3.24015C31.4398 2.41968 30.327 1.95874 29.1666 1.95874ZM30.625 18.0004C30.625 18.3872 30.4713 18.7581 30.1978 19.0316C29.9244 19.3051 29.5534 19.4587 29.1666 19.4587H5.83331C5.44654 19.4587 5.07561 19.3051 4.80212 19.0316C4.52862 18.7581 4.37498 18.3872 4.37498 18.0004V6.33374C4.37498 5.94697 4.52862 5.57603 4.80212 5.30254C5.07561 5.02905 5.44654 4.87541 5.83331 4.87541H29.1666C29.5534 4.87541 29.9244 5.02905 30.1978 5.30254C30.4713 5.57603 30.625 5.94697 30.625 6.33374V18.0004ZM17.5 7.79207C16.6347 7.79207 15.7888 8.04866 15.0694 8.52939C14.3499 9.01013 13.7891 9.69341 13.458 10.4928C13.1269 11.2923 13.0402 12.1719 13.209 13.0206C13.3779 13.8693 13.7945 14.6488 14.4064 15.2607C15.0182 15.8725 15.7978 16.2892 16.6465 16.458C17.4951 16.6268 18.3748 16.5402 19.1742 16.209C19.9736 15.8779 20.6569 15.3172 21.1377 14.5977C21.6184 13.8782 21.875 13.0324 21.875 12.1671C21.875 11.0068 21.414 9.89395 20.5936 9.07348C19.7731 8.25301 18.6603 7.79207 17.5 7.79207ZM17.5 13.6254C17.2115 13.6254 16.9296 13.5399 16.6898 13.3796C16.45 13.2194 16.263 12.9916 16.1527 12.7252C16.0423 12.4587 16.0134 12.1655 16.0697 11.8826C16.1259 11.5997 16.2648 11.3398 16.4688 11.1359C16.6727 10.9319 16.9326 10.793 17.2155 10.7368C17.4984 10.6805 17.7916 10.7094 18.0581 10.8197C18.3245 10.9301 18.5523 11.117 18.7125 11.3569C18.8728 11.5967 18.9583 11.8786 18.9583 12.1671C18.9583 12.5538 18.8047 12.9248 18.5312 13.1983C18.2577 13.4718 17.8868 13.6254 17.5 13.6254ZM26.25 10.7087C25.9615 10.7087 25.6796 10.7943 25.4398 10.9545C25.1999 11.1148 25.013 11.3425 24.9027 11.609C24.7923 11.8755 24.7634 12.1687 24.8197 12.4516C24.8759 12.7345 25.0148 12.9943 25.2188 13.1983C25.4227 13.4022 25.6826 13.5411 25.9655 13.5974C26.2484 13.6537 26.5416 13.6248 26.8081 13.5144C27.0745 13.404 27.3023 13.2171 27.4625 12.9773C27.6228 12.7375 27.7083 12.4555 27.7083 12.1671C27.7083 11.7803 27.5547 11.4094 27.2812 11.1359C27.0077 10.8624 26.6368 10.7087 26.25 10.7087Z" fill="black"/>
</svg>
