<svg xmlns="http://www.w3.org/2000/svg" viewBox="0 0 64 64" id="purchase"><path d="M15,41a1,1,0,0,0-1-1H4V22h8a1,1,0,0,0,0-2H2V14H15V34a1,1,0,0,0,2,0V14h4V33.047a1,1,0,0,0,2,0V14H36v6H26a1,1,0,0,0,0,2h8v8a1,1,0,0,0,2,0V22h1a1,1,0,0,0,1-1V13a1,1,0,0,0-1-1H24.384a13.939,13.939,0,0,0,3.77-2.761c4.367-4.74,2.551-7.449,1.89-8.166A3.24,3.24,0,0,0,27.606,0h0c-1.612,0-3.4,1.051-5.308,3.124a17.727,17.727,0,0,0-3.3,6.1,17.724,17.724,0,0,0-3.3-6.1C13.793,1.051,12.007,0,10.394,0A3.236,3.236,0,0,0,7.957,1.073C7.3,1.79,5.479,4.5,9.846,9.239A13.954,13.954,0,0,0,13.616,12H1a1,1,0,0,0-1,1v8a1,1,0,0,0,1,1H2V41a1,1,0,0,0,1,1H14A1,1,0,0,0,15,41ZM23.769,4.479C25.756,2.322,27.026,2,27.606,2a1.252,1.252,0,0,1,.967.428c.968,1.05.243,3.141-1.889,5.456a16.1,16.1,0,0,1-6.3,3.655C20.918,9.6,22.01,6.388,23.769,4.479ZM9.427,2.428A1.255,1.255,0,0,1,10.394,2c.581,0,1.85.322,3.838,2.479,1.759,1.909,2.85,5.116,3.385,7.06a16.094,16.094,0,0,1-6.3-3.655C9.184,5.568,8.459,3.478,9.427,2.428Z"></path><path d="M56.566,49.848A15.517,15.517,0,0,0,60.427,46H63a1,1,0,0,0,0-2H59.9a1,1,0,0,0-.849.471,13.819,13.819,0,0,1-3.581,3.707A11.465,11.465,0,0,1,51,49.9V44.655c3.069-1.554,6.433-6.5,6.832-7.1a1,1,0,1,0-1.664-1.11c-1.06,1.59-4.29,5.875-6.484,6.606a8.4,8.4,0,0,1-4.394-.008,1,1,0,0,0-.975.228c-2.206,2.076-5.976,4.94-7.489,4.736a4.669,4.669,0,0,1-2.437-.981l9.318-9.319a1,1,0,0,0-.325-1.63A1.01,1.01,0,0,0,43,36H33.877l7.377-4H63a1,1,0,0,0,0-2H41a1,1,0,0,0-.477.121L29.682,36H18a1,1,0,0,0-1,1V54H13a1,1,0,0,0-1,1v8a1,1,0,0,0,1,1H63a1,1,0,0,0,1-1V55a1,1,0,0,0-1-1H51V51.92A13.41,13.41,0,0,0,56.566,49.848ZM46.029,54a1,1,0,1,0,0,2H62v6H14V56H42.135a1,1,0,0,0,0-2H19V38H40.586l-8.293,8.293a1,1,0,0,0-.138,1.242,6.156,6.156,0,0,0,4.433,2.458,2.76,2.76,0,0,0,.33.019c2.693,0,6.853-3.54,8.365-4.912A10.925,10.925,0,0,0,49,45.251V54Z"></path><path d="M28,42H22a1,1,0,0,0-1,1v6a1,1,0,0,0,1,1h6a1,1,0,0,0,1-1V43A1,1,0,0,0,28,42Zm-1,2v1H23V44Zm-4,4V47h4v1Z"></path></svg>