<svg width="39" height="40" viewBox="0 0 39 40" fill="none" xmlns="http://www.w3.org/2000/svg">
<path d="M19.5 7.00043C16.5541 7.00734 13.6979 8.0146 11.3994 9.85718H14.2318C14.6627 9.85718 15.0761 10.0284 15.3808 10.3331C15.6856 10.6379 15.8568 11.0512 15.8568 11.4822C15.8568 11.9132 15.6856 12.3265 15.3808 12.6312C15.0761 12.936 14.6627 13.1072 14.2318 13.1072H7.73176C7.30078 13.1072 6.88746 12.936 6.58271 12.6312C6.27797 12.3265 6.10676 11.9132 6.10676 11.4822V4.98218C6.10676 4.5512 6.27797 4.13788 6.58271 3.83313C6.88746 3.52838 7.30078 3.35718 7.73176 3.35718C8.16274 3.35718 8.57606 3.52838 8.88081 3.83313C9.18556 4.13788 9.35676 4.5512 9.35676 4.98218V7.33518C11.7423 5.41535 14.6224 4.20988 17.6642 3.85815C20.7061 3.50642 23.7853 4.02278 26.546 5.34754C29.3067 6.67231 31.6361 8.75136 33.2648 11.3443C34.8936 13.9373 35.7552 16.9383 35.75 20.0004C35.75 20.4314 35.5788 20.8447 35.2741 21.1495C34.9693 21.4542 34.556 21.6254 34.125 21.6254C33.694 21.6254 33.2807 21.4542 32.976 21.1495C32.6712 20.8447 32.5 20.4314 32.5 20.0004C32.4961 16.5538 31.1253 13.2494 28.6881 10.8123C26.251 8.37518 22.9466 7.0043 19.5 7.00043ZM4.87501 18.3754C5.30599 18.3754 5.71931 18.5466 6.02406 18.8514C6.32881 19.1561 6.50001 19.5695 6.50001 20.0004C6.49567 22.4487 7.18397 24.8482 8.4854 26.9219C9.78683 28.9955 11.6483 30.6588 13.8548 31.7195C16.0614 32.7802 18.5229 33.1951 20.9553 32.9162C23.3876 32.6374 25.6914 31.6762 27.6006 30.1437H24.7699C24.3389 30.1437 23.9256 29.9725 23.6208 29.6677C23.3161 29.363 23.1449 28.9497 23.1449 28.5187C23.1449 28.0877 23.3161 27.6744 23.6208 27.3696C23.9256 27.0649 24.3389 26.8937 24.7699 26.8937H31.2699C31.7009 26.8937 32.1142 27.0649 32.4189 27.3696C32.7237 27.6744 32.8949 28.0877 32.8949 28.5187V35.0187C32.8949 35.4497 32.7237 35.863 32.4189 36.1677C32.1142 36.4725 31.7009 36.6437 31.2699 36.6437C30.8389 36.6437 30.4256 36.4725 30.1208 36.1677C29.8161 35.863 29.6449 35.4497 29.6449 35.0187V32.6657C27.2592 34.5853 24.379 35.7906 21.3371 36.1423C18.2953 36.4939 15.216 35.9776 12.4553 34.6529C9.69456 33.3282 7.36508 31.2492 5.73613 28.6563C4.10717 26.0635 3.24526 23.0625 3.25001 20.0004C3.25001 19.5695 3.42122 19.1561 3.72596 18.8514C4.03071 18.5466 4.44403 18.3754 4.87501 18.3754Z" fill="black"/>
</svg>
