<svg width="31" height="34" viewBox="0 0 31 34" fill="none" xmlns="http://www.w3.org/2000/svg">
<path d="M29.2313 4.17922C24.964 2.06035 20.2643 0.957764 15.5 0.957764C10.7357 0.957764 6.03598 2.06035 1.76875 4.17922C1.50076 4.31426 1.2754 4.52086 1.11765 4.77614C0.959896 5.03141 0.87591 5.32539 0.875 5.62547V25.1255C0.87591 25.4256 0.959896 25.7195 1.11765 25.9748C1.2754 26.2301 1.50076 26.4367 1.76875 26.5717L14.7688 33.0717C14.9956 33.186 15.246 33.2455 15.5 33.2455C15.754 33.2455 16.0044 33.186 16.2312 33.0717L29.2313 26.5717C29.4992 26.4367 29.7246 26.2301 29.8824 25.9748C30.0401 25.7195 30.1241 25.4256 30.125 25.1255V5.62547C30.1241 5.32539 30.0401 5.03141 29.8824 4.77614C29.7246 4.52086 29.4992 4.31426 29.2313 4.17922ZM26.875 24.118L15.5 29.8055L4.125 24.118V6.64922C7.69967 5.03401 11.5773 4.19861 15.5 4.19861C19.4227 4.19861 23.3003 5.03401 26.875 6.64922V24.118Z" fill="black"/>
<path d="M9.89375 15.6518C9.53695 15.4604 9.12155 15.4091 8.72891 15.508C8.33628 15.6068 7.99468 15.8487 7.77103 16.1862C7.54738 16.5237 7.45778 16.9325 7.51978 17.3326C7.58179 17.7328 7.79093 18.0953 8.10625 18.3493L12.9812 21.5993C13.2419 21.7846 13.5552 21.8814 13.875 21.8755C14.0889 21.8768 14.3009 21.8358 14.4988 21.7549C14.6968 21.6741 14.8769 21.5549 15.0287 21.4043L23.1537 13.2793C23.4597 12.9733 23.6316 12.5583 23.6316 12.1255C23.6316 11.6928 23.4597 11.2778 23.1537 10.9718C22.8478 10.6658 22.4327 10.4939 22 10.4939C21.5673 10.4939 21.1522 10.6658 20.8462 10.9718L13.6637 18.1543L9.89375 15.6518Z" fill="black"/>
</svg>
