<svg xmlns="http://www.w3.org/2000/svg" data-name="Layer 1" viewBox="0 0 512 512" id="secure-credit-card"><g data-name="<Group>"><path d="M440,55H72a47.841,47.841,0,0,0-48,47.75v217C24,346.218,45.533,368,72,368H288v62.929C288,445.442,299.818,457,314.864,457h109.85C439.759,457,452,445.442,452,430.929v-64.69a47.83,47.83,0,0,0,36-46.489v-217A47.841,47.841,0,0,0,440,55ZM40,141H472v48H40ZM72,71H440a31.823,31.823,0,0,1,32,31.75V125H40V102.75A31.823,31.823,0,0,1,72,71ZM436,430.929C436,436.62,430.937,441,424.714,441H314.864C308.641,441,304,436.62,304,430.929v-76.3A10.723,10.723,0,0,1,314.864,344h109.85c6.223,0,11.286,4.94,11.286,10.632ZM415,328h-3V302.878a40.491,40.491,0,0,0-12.885-29.389A42.369,42.369,0,0,0,370.153,262h-.285C346.719,262,328,280.49,328,302.872V328h-3V301.857C325,278.2,344.872,259,369.788,259h.116a45.753,45.753,0,0,1,31.682,12.285A41.7,41.7,0,0,1,415,301.858Zm-19,0H344V302.872C344,289.312,355.542,278,369.868,278h.322a26.388,26.388,0,0,1,18.006,7.185,24.461,24.461,0,0,1,7.8,17.688Zm55.513,21.634C449.479,339.472,441,331.379,431,329.018v-27.16a57.608,57.608,0,0,0-18.438-42.244,60.313,60.313,0,0,0-42.627-16.669c-33.713.03-60.935,26.446-60.935,58.912v27.161C298,331.542,289.009,341,287.745,352H72a32.251,32.251,0,0,1-32-32.25V205H472V319.75A31.881,31.881,0,0,1,451.513,349.634Z" data-name="<Compound Path>"></path><path d="M191.5 247.25a37.555 37.555 0 0 0-35 24.06 37.5 37.5 0 1 0 0 26.88 37.5 37.5 0 1 0 35-50.94zm-70 59a21.5 21.5 0 1 1 21.5-21.5A21.525 21.525 0 0 1 121.5 306.25zm70 0a21.5 21.5 0 1 1 21.5-21.5A21.525 21.525 0 0 1 191.5 306.25zM369.788 376.451A19.333 19.333 0 0 0 362 413.727v9.686a8 8 0 0 0 16 0v-9.686A19.5 19.5 0 0 0 389.948 395.9C389.948 385.177 380.845 376.451 369.788 376.451zm0 16c2.235 0 4.053 1.548 4.053 3.451s-1.818 3.451-4.053 3.451-4.054-1.548-4.054-3.451S367.552 392.451 369.788 392.451z" data-name="<Compound Path>"></path></g></svg>